<?xml version="1.0" encoding="UTF-8"?>
<svg xmlns="http://www.w3.org/2000/svg" xmlns:xlink="http://www.w3.org/1999/xlink" width="50pt" height="50pt" viewBox="0 0 50 50" version="1.1">
<g id="surface1">
<path style=" stroke:none;fill-rule:nonzero;fill:rgb(84.705882%,21.176471%,16.470588%);fill-opacity:1;" d="M 49.484375 14.222656 C 49.484375 14.222656 48.964844 10.515625 47.5 8.878906 C 45.601562 6.722656 43.449219 6.722656 42.5 6.636719 C 35.515625 6.121094 25 6.035156 25 6.035156 C 25 6.035156 14.484375 6.121094 7.5 6.636719 C 6.550781 6.722656 4.398438 6.808594 2.5 8.878906 C 0.949219 10.515625 0.515625 14.222656 0.515625 14.222656 C 0.515625 14.222656 0 18.621094 0 23.015625 L 0 27.070312 C 0 31.464844 0.515625 35.777344 0.515625 35.777344 C 0.515625 35.777344 1.035156 39.484375 2.5 41.121094 C 4.398438 43.277344 6.898438 43.191406 8.015625 43.449219 C 11.984375 43.878906 25 43.964844 25 43.964844 C 25 43.964844 35.515625 43.964844 42.5 43.363281 C 43.449219 43.277344 45.601562 43.191406 47.5 41.121094 C 48.964844 39.484375 49.484375 35.777344 49.484375 35.777344 C 49.484375 35.777344 50 31.378906 50 27.070312 L 50 23.015625 C 50 18.621094 49.484375 14.222656 49.484375 14.222656 "/>
<path style=" stroke:none;fill-rule:nonzero;fill:rgb(100%,100%,100%);fill-opacity:1;" d="M 18.964844 16.292969 L 18.964844 35 L 35.34375 25.863281 Z M 18.964844 16.292969 "/>
</g>
</svg>
